<?xml version="1.0" encoding="UTF-8"?>
<svg id="Layer_2" data-name="Layer 2" xmlns="http://www.w3.org/2000/svg" xmlns:xlink="http://www.w3.org/1999/xlink" viewBox="0 0 810.59 227.62">
  <defs>
    <style>
      .cls-1 {
        fill: url(#linear-gradient);
      }

      .cls-1, .cls-2 {
        stroke-width: 0px;
      }

      .cls-3 {
        fill: none;
        stroke: #fff;
        stroke-linecap: round;
        stroke-linejoin: round;
        stroke-width: 8.87px;
      }

      .cls-2 {
        fill: #15072b;
      }
    </style>
    <linearGradient id="linear-gradient" x1="32.22" y1="193.15" x2="195.41" y2="34.47" gradientUnits="userSpaceOnUse">
      <stop offset="0" stop-color="#451991"/>
      <stop offset="1" stop-color="#6424d1"/>
    </linearGradient>
  </defs>
  <g id="Layer_1-2" data-name="Layer 1">
    <g>
      <g>
        <path class="cls-2" d="M273.23,180.4c-1.23,0-2.23-.42-3-1.25-.78-.83-1.17-1.81-1.17-2.92v-108.48c0-1.22.39-2.22,1.17-3s1.78-1.17,3-1.17h46.73c9.23,0,17.27,1.42,24.12,4.26,6.84,2.84,12.18,7.09,16.02,12.77s5.76,12.85,5.76,21.53-1.92,15.63-5.76,21.19c-3.84,5.57-9.18,9.68-16.02,12.35-6.84,2.67-14.88,4.01-24.12,4.01h-19.86v36.55c0,1.11-.42,2.09-1.25,2.92-.83.83-1.86,1.25-3.09,1.25h-22.53ZM299.6,116.65h19.53c4.78,0,8.59-1.22,11.43-3.67,2.84-2.45,4.26-6.17,4.26-11.18,0-4.23-1.23-7.79-3.67-10.68-2.45-2.89-6.45-4.34-12.02-4.34h-19.53v29.87Z"/>
        <path class="cls-2" d="M381.29,180.4c-1.23,0-2.23-.42-3-1.25-.78-.83-1.17-1.81-1.17-2.92v-110.15c0-1.22.39-2.22,1.17-3s1.78-1.17,3-1.17h19.69c1.22,0,2.22.39,3,1.17.78.78,1.17,1.78,1.17,3v110.15c0,1.11-.39,2.09-1.17,2.92-.78.83-1.78,1.25-3,1.25h-19.69Z"/>
        <path class="cls-2" d="M448.15,182.07c-6.01,0-11.38-1.14-16.1-3.42-4.73-2.28-8.49-5.37-11.26-9.26-2.78-3.89-4.17-8.29-4.17-13.18,0-7.9,3.23-14.16,9.68-18.77,6.45-4.62,15.02-7.76,25.7-9.43l20.86-3.17v-2.34c0-4.01-.83-7.06-2.5-9.18-1.67-2.11-4.73-3.17-9.18-3.17-3.12,0-5.65.61-7.59,1.84-1.95,1.23-3.48,2.89-4.59,5.01-1,1.45-2.39,2.17-4.17,2.17h-18.69c-1.23,0-2.17-.36-2.84-1.08-.67-.72-.95-1.59-.83-2.59,0-2,.75-4.31,2.25-6.93,1.5-2.61,3.81-5.2,6.93-7.76,3.11-2.56,7.12-4.67,12.02-6.34,4.89-1.67,10.85-2.5,17.86-2.5s13.24.83,18.36,2.5c5.12,1.67,9.29,4.01,12.52,7.01,3.23,3,5.59,6.54,7.09,10.6,1.5,4.06,2.25,8.54,2.25,13.43v50.73c0,1.11-.42,2.09-1.25,2.92-.83.83-1.81,1.25-2.92,1.25h-19.36c-1.23,0-2.23-.42-3-1.25-.78-.83-1.17-1.81-1.17-2.92v-5.84c-1.45,2.12-3.4,4.06-5.84,5.84-2.45,1.78-5.31,3.2-8.59,4.25-3.28,1.06-7.09,1.59-11.43,1.59ZM455.99,163.05c3.23,0,6.15-.69,8.76-2.09,2.61-1.39,4.67-3.56,6.17-6.51,1.5-2.95,2.25-6.65,2.25-11.1v-2.34l-14.19,2.5c-5.23.89-9.04,2.25-11.43,4.09-2.39,1.84-3.59,3.98-3.59,6.43,0,1.89.56,3.5,1.67,4.84,1.11,1.33,2.59,2.37,4.42,3.09,1.84.73,3.81,1.08,5.92,1.08Z"/>
        <path class="cls-2" d="M522.09,180.4c-1.23,0-2.23-.42-3-1.25-.78-.83-1.17-1.81-1.17-2.92v-78.44c0-1.22.39-2.22,1.17-3,.78-.78,1.78-1.17,3-1.17h19.19c1.22,0,2.25.39,3.09,1.17.83.78,1.25,1.78,1.25,3v6.34c2.78-3.45,6.51-6.34,11.18-8.68s10.18-3.5,16.52-3.5,12.15,1.45,17.11,4.34c4.95,2.89,8.84,7.12,11.68,12.68,2.84,5.56,4.25,12.46,4.25,20.69v46.56c0,1.11-.39,2.09-1.17,2.92-.78.83-1.78,1.25-3,1.25h-21.03c-1.11,0-2.09-.42-2.92-1.25-.83-.83-1.25-1.81-1.25-2.92v-45.56c0-5.23-1.25-9.26-3.75-12.1-2.5-2.84-6.2-4.26-11.1-4.26-4.56,0-8.21,1.42-10.93,4.26-2.73,2.84-4.09,6.87-4.09,12.1v45.56c0,1.11-.42,2.09-1.25,2.92-.83.83-1.81,1.25-2.92,1.25h-20.86Z"/>
        <path class="cls-2" d="M626.73,180.4c-1.23,0-2.23-.42-3-1.25-.78-.83-1.17-1.81-1.17-2.92v-78.44c0-1.22.39-2.22,1.17-3,.78-.78,1.78-1.17,3-1.17h19.19c1.22,0,2.25.39,3.09,1.17.83.78,1.25,1.78,1.25,3v6.34c2.78-3.45,6.51-6.34,11.18-8.68s10.18-3.5,16.52-3.5,12.15,1.45,17.11,4.34c4.95,2.89,8.84,7.12,11.68,12.68,2.84,5.56,4.25,12.46,4.25,20.69v46.56c0,1.11-.39,2.09-1.17,2.92-.78.83-1.78,1.25-3,1.25h-21.03c-1.11,0-2.09-.42-2.92-1.25-.83-.83-1.25-1.81-1.25-2.92v-45.56c0-5.23-1.25-9.26-3.75-12.1-2.5-2.84-6.2-4.26-11.1-4.26-4.56,0-8.21,1.42-10.93,4.26-2.73,2.84-4.09,6.87-4.09,12.1v45.56c0,1.11-.42,2.09-1.25,2.92-.83.83-1.81,1.25-2.92,1.25h-20.86Z"/>
        <path class="cls-2" d="M739.5,212.11c-1,0-1.83-.33-2.5-1-.67-.67-1-1.5-1-2.5,0-.22.03-.53.08-.92.05-.39.19-.81.42-1.25l13.02-31.38-32.04-75.77c-.33-.78-.5-1.44-.5-2,.22-1,.67-1.86,1.33-2.59.67-.72,1.5-1.08,2.5-1.08h19.03c1.45,0,2.53.36,3.25,1.08.72.73,1.25,1.53,1.58,2.42l19.03,48.56,19.53-48.56c.44-.89,1.03-1.69,1.75-2.42.72-.72,1.81-1.08,3.25-1.08h18.69c1,0,1.86.36,2.59,1.08.72.73,1.08,1.53,1.08,2.42,0,.56-.17,1.28-.5,2.17l-47.23,109.31c-.33.89-.89,1.7-1.67,2.42-.78.72-1.89,1.08-3.34,1.08h-18.36Z"/>
      </g>
      <rect class="cls-1" x="0" y="0" width="227.62" height="227.62" rx="113.81" ry="113.81"/>
      <g>
        <path class="cls-3" d="M175.72,113.43c3.52-.84,5.69-4.38,4.85-7.9-.39-1.64-1.4-3.06-2.81-3.98l-50.7-35.28c-3.12-2.17-7.03-2.88-10.71-1.95l-59.88,15.07c-3.52.83-5.71,4.37-4.87,7.89.38,1.6,1.35,3.01,2.72,3.93l50.69,35.3c3.12,2.17,7.03,2.88,10.71,1.95l60.01-15.04Z"/>
        <path class="cls-3" d="M180.55,108.17l-7.06,38.71"/>
        <path class="cls-3" d="M74.38,105.46l-4.12,22.58c-1.95,10.69,13.8,22.52,35.18,26.42,21.38,3.9,40.29-1.6,42.24-12.29l4.12-22.58"/>
      </g>
    </g>
  </g>
</svg>